@startuml
class GetConnectionMessagesQuery {
    + PageSize : int <<get>> <<set>>
    + PageNumber : int <<get>> <<set>>
}
class "IRequest`1"<T> {
}
"IRequest`1" "<List<MessageViewDto>>" <|-- GetConnectionMessagesQuery
GetConnectionMessagesQuery --> "ConnectionId" Guid
GetConnectionMessagesQuery --> "FromDate" DateTime
GetConnectionMessagesQuery --> "ToDate" DateTime
@enduml
